<svg width="128" height="128" viewBox="0 0 128 128" fill="none" xmlns="http://www.w3.org/2000/svg">
  <!-- 背景圆形 -->
  <circle cx="64" cy="64" r="60" fill="url(#gradient)" stroke="#667eea" stroke-width="4"/>
  
  <!-- 灯泡图标 -->
  <path d="M64 20C50.745 20 40 30.745 40 44C40 52.5 44.5 59.5 51 63V75C51 78.314 53.686 81 57 81H71C74.314 81 77 78.314 77 75V63C83.5 59.5 88 52.5 88 44C88 30.745 77.255 20 64 20Z" fill="white"/>
  
  <!-- 灯泡内部线条 -->
  <path d="M64 30C55.163 30 48 37.163 48 46C48 50.5 50 54.5 53 57V67H75V57C78 54.5 80 50.5 80 46C80 37.163 72.837 30 64 30Z" fill="#667eea"/>
  
  <!-- 灯泡底部 -->
  <rect x="55" y="81" width="18" height="8" rx="2" fill="white"/>
  
  <!-- 文字 "P" -->
  <text x="64" y="52" text-anchor="middle" fill="white" font-family="Arial, sans-serif" font-size="16" font-weight="bold">P</text>
  
  <!-- 渐变定义 -->
  <defs>
    <linearGradient id="gradient" x1="0%" y1="0%" x2="100%" y2="100%">
      <stop offset="0%" style="stop-color:#667eea;stop-opacity:1" />
      <stop offset="100%" style="stop-color:#764ba2;stop-opacity:1" />
    </linearGradient>
  </defs>
</svg>
